<svg xmlns="http://www.w3.org/2000/svg" width="50" height="100" viewBox="0 0 500 1000">
  <defs>
    <style>
      .cls-1 {
        fill: grey;
        fill-rule: evenodd;
      }
    </style>
  </defs>
  <path id="Form_2" data-name="Form 2" class="cls-1" d="M194.827,0L84.582,164.577C81.8,269.293,80.3,371.952,80.036,476.705c-0.284,111.637.836,220.949,3.41,332.558l97.743,149.822,3.41-733.218a31.277,31.277,0,0,1,10.229-24.97V0Zm125.02,34.05-1.136,732.083a46.3,46.3,0,0,1-10.229,24.97q0.568,100.449,1.136,200.9L418.727,829.693c1.433-118.071,2.185-234.908,2.273-352.988,0.072-96.758-.305-192.673-1.137-289.428Q369.856,110.663,319.847,34.05Z"/>
</svg>
